<svg width="300" height="257" xmlns="http://www.w3.org/2000/svg" preserveAspectRatio="xMidYMid meet">
 <metadata>Created by potrace 1.10, written by Peter Selinger 2001-2011</metadata>

 <g>
  <title>background</title>
  <rect fill="none" id="canvas_background" height="602" width="802" y="-1" x="-1"/>
 </g>
 <g>
  <title>Layer 1</title>
  <g id="svg_1" fill="#000000" transform="translate(0.000000,257.000000) scale(0.100000,-0.100000)">
   <path fill="#ffffff" id="svg_2" d="m566,2393c-3,-21 -19,-153 -36,-293c-16,-140 -33,-277 -36,-303c-7,-58 2,-70 61,-87c68,-19 79,-38 83,-141l4,-89l34,0l34,0l0,423c0,319 -3,428 -13,447c-10,21 -97,79 -119,80c-3,0 -9,-17 -12,-37zm115,-63c9,-33 9,-767 -1,-805c-10,-41 -17,-17 -23,73c-5,88 -25,114 -98,133c-27,7 -49,17 -49,23c0,19 70,601 76,624l5,23l41,-23c26,-14 45,-33 49,-48z"/>
   <path fill="#ffffff" id="svg_3" d="m1165,2014c-88,-19 -154,-49 -258,-117c-99,-65 -147,-109 -128,-115c7,-2 18,1 24,7c17,17 59,13 212,-18c209,-42 282,-41 500,10l179,41l44,-21c41,-20 76,-20 42,0c-8,5 -64,39 -125,75c-146,88 -218,121 -301,139c-83,18 -99,18 -189,-1zm-30,-59c-14,-21 -25,-51 -25,-67c0,-33 25,-98 43,-111c14,-10 -24,-5 -180,25c-62,12 -113,25 -113,30c0,22 283,176 298,163c2,-1 -8,-20 -23,-40zm200,12c19,-19 37,-46 40,-60c10,-40 -2,-76 -40,-114c-40,-40 -91,-44 -143,-13c-103,63 -57,220 65,220c38,0 50,-5 78,-33zm66,14c62,-21 129,-54 212,-104c44,-27 54,-37 40,-41c-10,-3 -76,-19 -148,-36c-71,-17 -139,-34 -150,-37c-19,-5 -19,-5 1,18c59,66 59,132 1,197c-25,27 -24,27 44,3z"/>
   <path fill="#ffffff" id="svg_4" d="m1812,1760c-26,-11 -122,-91 -122,-102c0,-4 13,-14 29,-22c34,-18 46,-46 65,-148c16,-81 27,-107 83,-196c39,-60 64,-125 83,-214c11,-50 11,-63 -4,-102c-15,-38 -23,-47 -54,-56c-20,-5 -46,-10 -57,-10c-27,0 -65,-27 -65,-46c0,-12 34,-14 215,-14c118,0 215,-3 215,-7c0,-5 -11,-50 -25,-101c-27,-103 -77,-217 -123,-284c-16,-24 -44,-72 -61,-106c-38,-75 -98,-144 -145,-166c-44,-21 -160,-21 -245,-1c-134,32 -300,155 -321,238c-22,88 -93,284 -131,363c-82,172 -252,396 -460,606c-196,198 -227,196 -38,-3c341,-357 436,-501 539,-814c29,-88 58,-172 65,-186c8,-14 45,-55 83,-91c76,-71 160,-118 257,-143c67,-17 210,-20 250,-5c38,15 134,109 157,155c12,22 47,83 78,135c60,100 100,191 131,300c21,71 25,140 9,140c-5,0 -10,-5 -10,-12c0,-6 -7,-5 -18,5c-10,9 -32,22 -49,28l-31,10l19,57c15,44 17,63 9,86c-5,16 -9,30 -8,31c2,1 61,6 133,11c110,8 130,12 133,26c4,21 -132,230 -196,301c-26,29 -58,68 -71,87c-40,58 -194,222 -226,242c-33,20 -58,22 -93,8zm71,-23c28,-12 155,-142 215,-221c26,-34 28,-73 6,-105c-15,-21 -22,-23 -76,-18l-59,5l15,-21c49,-67 49,-68 37,-80c-30,-30 -135,89 -129,147c3,32 13,37 101,51c22,4 35,10 31,16c-8,14 -88,2 -126,-17c-23,-12 -28,-21 -28,-53c0,-69 92,-175 147,-169c24,3 28,7 27,33c0,17 -4,37 -8,46c-6,13 -2,16 17,12c26,-5 87,39 87,63c0,8 4,14 9,14c15,0 89,-89 128,-154c20,-34 51,-82 70,-107c18,-26 33,-48 33,-50c0,-7 -131,-14 -208,-12c-71,1 -74,0 -68,-20c17,-57 17,-89 2,-133c-20,-60 -20,-74 1,-74c9,0 14,-3 10,-6c-9,-9 -107,-10 -107,-1c0,4 8,7 19,7c24,0 34,13 59,81l20,55l-63,72c-143,161 -216,288 -244,422c-14,68 -25,99 -40,111c-28,23 -26,31 5,19c23,-9 25,-8 19,7c-14,34 -10,47 24,70c40,27 34,26 74,10zm102,-614c36,-76 4,-201 -59,-227c-48,-20 -120,-31 -112,-17c4,6 18,11 31,11c14,0 42,7 64,16c30,12 43,25 55,55c20,48 20,79 2,147c-16,60 -6,69 19,15zm95,-109c0,-7 -9,-32 -19,-57c-15,-34 -26,-46 -48,-50c-15,-3 -29,-4 -30,-3c-1,1 9,29 22,62c14,32 25,70 25,83l0,24l25,-23c14,-13 25,-29 25,-36z"/>
   <path fill="#ffffff" id="svg_5" d="m1811,1701c-21,-13 -4,-31 30,-31c31,0 36,9 17,28c-14,14 -28,15 -47,3z"/>
   <path fill="#ffffff" id="svg_6" d="m2,170c0,-14 2,-19 5,-12c2,6 2,18 0,25c-3,6 -5,1 -5,-13z"/>
  </g>
 </g>
</svg>